# File created by Blade
# Date/Time:  Wed Apr 08 17:12:22 2015
#---------------------------------------------------------
:version 1.10
:name HOM
:units
  mass 1.0
  length 1.000000
  angle deg
:documentation
     Acclaim Skeleton File
:root
   axis xyz
   order TX TY TZ RX RY RZ
   position 0.000000 0.000000 0.000000
   orientation 0 0 0
:bonedata
   begin
      id 1
      name Spine_dum
      direction 0.000000 1.000000 0.000000
      length 5.893853
      axis 0.0 0.0 0.0 xyz
   end
   begin
      id 2
      name LeftUpLeg_dum
      direction 1.000000 0.000000 0.000000
      length 3.697939
      axis 0.0 0.0 0.0 xyz
   end
   begin
      id 3
      name RightUpLeg_dum
      direction -1.000000 0.000000 0.000000
      length 3.697939
      axis 0.0 0.0 0.0 xyz
   end
   begin
      id 4
      name Spine
      direction 0.000000 1.000000 0.000000
      length 0.000000
      axis 0.0 0.0 0.0 xyz
      dof rx ry rz
   end
   begin
      id 5
      name Spine_dum1
      direction 0.000000 1.000000 0.000000
      length 16.447146
      axis 0.0 0.0 0.0 xyz
   end
   begin
      id 6
      name Spine_dum2
      direction 0.000000 1.000000 0.000000
      length 10.900383
      axis 0.0 0.0 0.0 xyz
   end
   begin
      id 7
      name Spine_dum3
      direction 0.000000 1.000000 0.000000
      length 10.900383
      axis 0.0 0.0 0.0 xyz
   end
   begin
      id 8
      name Head
      direction 0.000000 1.000000 0.000000
      length 4.527550
      axis 0.0 0.0 0.0 xyz
      dof rx ry rz
   end
   begin
      id 9
      name LeftShoulder
      direction 1.000000 0.000000 0.000000
      length 8.219464
      axis 0.0 0.0 -90.0 xyz
      dof rx ry rz
   end
   begin
      id 10
      name LeftArm
      direction 1.000000 0.000000 0.000000
      length 11.094937
      axis 0.0 0.0 -90.0 xyz
      dof rx ry rz
   end
   begin
      id 11
      name LeftForeArm
      direction 1.000000 0.000000 0.000000
      length 9.103875
      axis 0.0 0.0 -90.0 xyz
      dof ry rz rx
   end
   begin
      id 12
      name LeftHand
      direction 0.000000 0.000000 0.000000
      length 0.000000
      axis 0.0 0.0 -90.0 xyz
      dof rx ry rz
   end
   begin
      id 13
      name LeftHand_dum1
      direction 0.000000 0.000000 0.000000
      length 0.000000
      axis 0.0 0.0 -90.0 xyz
   end
   begin
      id 14
      name LeftHand_dum2
      direction 1.000000 0.000000 0.000000
      length 3.937000
      axis 0.0 0.0 -90.0 xyz
   end
   begin
      id 15
      name LeftHandThumb1
      direction 0.000000 0.000000 1.000000
      length 3.937000
      axis 0.0 0.0 -90.0 xyz
      dof rx rz ry
   end
   begin
      id 16
      name RightShoulder
      direction -1.000000 0.000000 0.000000
      length 8.219464
      axis 0.0 0.0 90.0 xyz
      dof rx ry rz
   end
   begin
      id 17
      name RightArm
      direction -1.000000 0.000000 0.000000
      length 11.094937
      axis 0.0 0.0 90.0 xyz
      dof rx ry rz
   end
   begin
      id 18
      name RightForeArm
      direction -1.000000 0.000000 0.000000
      length 9.103875
      axis 0.0 0.0 90.0 xyz
      dof ry rz rx
   end
   begin
      id 19
      name RightHand
      direction 0.000000 0.000000 0.000000
      length 0.000000
      axis 0.0 0.0 90.0 xyz
      dof rx ry rz
   end
   begin
      id 20
      name RightHand_dum1
      direction 0.000000 0.000000 0.000000
      length 0.000000
      axis 0.0 0.0 90.0 xyz
   end
   begin
      id 21
      name RightHand_dum2
      direction -1.000000 0.000000 0.000000
      length 3.937000
      axis 0.0 0.0 90.0 xyz
   end
   begin
      id 22
      name RightHandThumb1
      direction 0.000000 0.000000 1.000000
      length 3.937000
      axis 0.0 0.0 90.0 xyz
      dof rx rz ry
   end
   begin
      id 23
      name LeftUpLeg
      direction 0.000000 -1.000000 0.000000
      length 16.181467
      axis 0.0 0.0 0.0 xyz
      dof rx ry rz
   end
   begin
      id 24
      name LeftLeg
      direction 0.000000 -1.000000 0.000000
      length 16.501392
      axis 0.0 0.0 0.0 xyz
      dof rx ry rz
   end
   begin
      id 25
      name LeftFoot
      direction 0.000000 -0.258819 0.965926
      length 6.408245
      axis 15.0 0.0 0.0 xyz
      dof rx ry rz
   end
   begin
      id 26
      name LeftToeBase
      direction 0.000000 0.000000 1.000000
      length 2.952750
      axis 0.0 0.0 0.0 xyz
      dof rx ry rz
   end
   begin
      id 27
      name RightUpLeg
      direction 0.000000 -1.000000 0.000000
      length 16.181467
      axis 0.0 0.0 0.0 xyz
      dof rx ry rz
   end
   begin
      id 28
      name RightLeg
      direction 0.000000 -1.000000 0.000000
      length 16.501392
      axis 0.0 0.0 0.0 xyz
      dof rx ry rz
   end
   begin
      id 29
      name RightFoot
      direction 0.000000 -0.258819 0.965926
      length 6.408245
      axis 15.0 0.0 0.0 xyz
      dof rx ry rz
   end
   begin
      id 30
      name RightToeBase
      direction 0.000000 0.000000 1.000000
      length 2.952750
      axis 0.0 0.0 0.0 xyz
      dof rx ry rz
   end
:hierarchy
   begin
      root Spine_dum LeftUpLeg_dum RightUpLeg_dum
      Spine_dum Spine
      LeftUpLeg_dum LeftUpLeg
      RightUpLeg_dum RightUpLeg
      Spine Spine_dum1 Spine_dum2 Spine_dum3
      Spine_dum1 Head
      Spine_dum2 LeftShoulder
      Spine_dum3 RightShoulder
      LeftShoulder LeftArm
      LeftArm LeftForeArm
      LeftForeArm LeftHand
      LeftHand LeftHand_dum1 LeftHand_dum2
      LeftHand_dum1 LeftHandThumb1
      RightShoulder RightArm
      RightArm RightForeArm
      RightForeArm RightHand
      RightHand RightHand_dum1 RightHand_dum2
      RightHand_dum1 RightHandThumb1
      LeftUpLeg LeftLeg
      LeftLeg LeftFoot
      LeftFoot LeftToeBase
      RightUpLeg RightLeg
      RightLeg RightFoot
      RightFoot RightToeBase
   end

# File created by Blade
# Date/Time:  Wed Apr 08 17:12:12 2015
# Frame Rate: 120.000 fps
#------------------------------------------------------
:FULLY-SPECIFIED
:DEGREES
549
root 1.796612 36.645276 7.821719 -28.668070 -5.445218 -9.868205
Spine 36.978855 -1.587665 3.687598
Head 1.945127 14.903440 10.708243
LeftShoulder -6.402299 17.516613 14.082736
LeftArm 19.570475 25.029851 -75.198175
LeftForeArm 19.972758 -0.000000 20.124800
LeftHand -13.289677 -0.000000 -10.719761
LeftHandThumb1 -26.253704 0.000000 33.147579
RightShoulder -28.790932 -50.288474 15.350361
RightArm 58.041503 -20.977612 46.301904
RightForeArm 8.377452 -0.000000 16.984232
RightHand -3.220325 0.000000 14.363151
RightHandThumb1 -24.326973 -0.000000 -32.862282
LeftUpLeg 29.769970 0.183839 9.214685
LeftLeg 16.166050 -0.000000 -0.000000
LeftFoot -13.917865 -9.479062 -7.168856
LeftToeBase 5.949224 -0.000000 -0.000000
RightUpLeg -67.723967 -0.130174 21.556910
RightLeg 134.555241 -0.000000 -0.000000
RightFoot 16.125047 -3.575860 15.914153
RightToeBase -5.686550 -0.000000 0.000000
550
root 1.791100 36.639764 7.789250 -28.438223 -5.891360 -9.870314
Spine 36.820784 -1.502415 3.738307
Head 1.901185 14.850841 10.733296
LeftShoulder -6.411198 17.512508 14.086981
LeftArm 19.519743 25.050458 -75.164229
LeftForeArm 20.033753 -0.000000 20.021681
LeftHand -13.271282 -0.000000 -10.753108
LeftHandThumb1 -26.253704 0.000000 33.147579
RightShoulder -28.612774 -50.276029 15.245455
RightArm 57.970548 -20.908886 46.516997
RightForeArm 8.481207 -0.000000 17.261627
RightHand -3.245934 -0.000000 14.277443
RightHandThumb1 -24.326973 -0.000000 -32.862282
LeftUpLeg 29.588222 0.359390 9.260612
LeftLeg 16.199868 -0.000000 -0.000000
LeftFoot -14.008673 -9.215771 -7.176558
LeftToeBase 5.919096 -0.000000 -0.000000
RightUpLeg -68.002525 -0.086509 21.467950
RightLeg 134.632062 -0.000000 -0.000000
RightFoot 16.173299 -3.689326 16.015401
RightToeBase -5.635473 -0.000000 0.000000
551
root 1.782642 36.643322 7.763392 -28.332037 -6.382771 -9.942690
Spine 36.809144 -1.465787 3.865331
Head 1.840427 14.836568 10.697446
LeftShoulder -6.455813 17.517725 14.045157
LeftArm 19.514518 25.097164 -75.096702
LeftForeArm 19.962597 0.000000 19.873736
LeftHand -13.186400 -0.000000 -10.811609
LeftHandThumb1 -26.253704 0.000000 33.147579
RightShoulder -28.686810 -50.168477 15.292530
RightArm 58.174485 -20.909001 46.466829
RightForeArm 8.659068 0.000000 17.302632
RightHand -3.198453 -0.000000 14.236563
RightHandThumb1 -24.326973 -0.000000 -32.862282
LeftUpLeg 29.585716 0.577425 9.444271
LeftLeg 16.165116 -0.000000 -0.000000
LeftFoot -14.043147 -9.035920 -7.205785
LeftToeBase 5.874739 -0.000000 -0.000000
RightUpLeg -68.085397 -0.090406 21.467509
RightLeg 134.673376 -0.000000 -0.000000
RightFoot 16.137002 -3.748033 15.986462
RightToeBase -5.349277 -0.000000 0.000000
552
root 1.772774 36.647995 7.741153 -28.307924 -6.858546 -10.013412
Spine 36.886514 -1.432144 3.968676
Head 1.803033 14.815908 10.703382
LeftShoulder -6.460187 17.509904 14.059657
LeftArm 19.483549 25.100828 -75.091512
LeftForeArm 19.919103 -0.000000 19.736380
LeftHand -13.134270 -0.000000 -10.834548
LeftHandThumb1 -26.253704 0.000000 33.147579
RightShoulder -28.602684 -50.141237 15.244955
RightArm 58.249527 -20.840765 46.574006
RightForeArm 8.822957 -0.000000 17.453354
RightHand -3.280487 -0.000000 14.257809
RightHandThumb1 -24.326973 -0.000000 -32.862282
LeftUpLeg 29.680900 0.777718 9.621441
LeftLeg 16.097605 -0.000000 -0.000000
LeftFoot -14.054179 -8.829139 -7.223953
LeftToeBase 5.782784 -0.000000 -0.000000
RightUpLeg -68.087200 -0.133928 21.468336
RightLeg 134.725835 -0.000000 -0.000000
RightFoot 16.057735 -3.737334 15.752104
RightToeBase -4.793789 -0.000000 0.000000
553
root 1.763919 36.651365 7.716286 -28.276909 -7.399550 -10.029967
Spine 36.954852 -1.291183 4.062271
Head 1.765796 14.751243 10.723833
LeftShoulder -6.387493 17.462074 14.135630
LeftArm 19.385318 24.896988 -75.259722
LeftForeArm 20.106776 0.000000 19.511400
LeftHand -13.012563 0.000000 -10.995189
LeftHandThumb1 -26.253704 0.000000 33.147579
RightShoulder -28.494359 -50.133576 15.180061
RightArm 58.226757 -20.723397 46.843035
RightForeArm 8.869053 -0.000000 17.628403
RightHand -3.173317 -0.000000 14.359064
RightHandThumb1 -24.326973 -0.000000 -32.862282
LeftUpLeg 29.779984 1.076638 9.801196
LeftLeg 16.044070 -0.000000 -0.000000
LeftFoot -14.053120 -8.695318 -7.290512
LeftToeBase 5.804055 -0.000000 -0.000000
RightUpLeg -68.072774 -0.090955 21.431310
RightLeg 134.787220 -0.000000 -0.000000
RightFoot 15.968276 -3.719634 15.765360
RightToeBase -4.724747 -0.000000 0.000000
554
root 1.760597 36.653850 7.691289 -28.228900 -7.871489 -10.061264
Spine 37.024509 -1.261733 4.127417
Head 1.688599 14.754322 10.696292
LeftShoulder -6.429025 17.439712 14.136209
LeftArm 19.380172 24.924769 -75.259901
LeftForeArm 20.131641 0.000000 19.367080
LeftHand -13.008515 -0.000000 -11.080490
LeftHandThumb1 -26.253704 0.000000 33.147579
RightShoulder -28.387695 -50.026026 15.072123
RightArm 58.228235 -20.724589 46.979881
RightForeArm 8.987302 -0.000000 17.762284
RightHand -3.117019 -0.000000 14.223234
RightHandThumb1 -24.326973 -0.000000 -32.862282
LeftUpLeg 29.842099 1.283714 9.907910
LeftLeg 15.986573 -0.000000 -0.000000
LeftFoot -14.086458 -8.418577 -7.283522
LeftToeBase 5.764946 -0.000000 -0.000000
RightUpLeg -68.105946 -0.123147 21.374954
RightLeg 134.870823 -0.000000 -0.000000
RightFoot 15.906481 -3.726158 15.685529
RightToeBase -4.676428 -0.000000 0.000000
555
root 1.754569 36.655515 7.661247 -28.134750 -8.315438 -10.108265
Spine 37.041491 -1.240605 4.174508
Head 1.632118 14.702447 10.732060
LeftShoulder -6.335653 17.337192 14.225475
LeftArm 19.171589 24.460059 -75.574980
LeftForeArm 20.482935 -0.000000 19.131187
LeftHand -12.739204 -0.000000 -11.386007
LeftHandThumb1 -26.253704 0.000000 33.147579
RightShoulder -28.318292 -50.027815 15.065924
RightArm 58.224560 -20.584957 47.207604
RightForeArm 9.051280 -0.000000 17.975156
RightHand -3.204806 -0.000000 14.106518
RightHandThumb1 -24.326973 -0.000000 -32.862282
LeftUpLeg 29.824985 1.470617 10.028372
LeftLeg 15.976402 -0.000000 -0.000000
LeftFoot -14.129663 -8.190261 -7.295902
LeftToeBase 5.711738 -0.000000 -0.000000
RightUpLeg -68.191752 -0.167680 21.328867
RightLeg 134.934551 -0.000000 -0.000000
RightFoot 15.855320 -3.754274 15.601271
RightToeBase -4.462795 -0.000000 0.000000
556
root 1.760738 36.646747 7.622149 -27.868562 -8.731777 -10.041341
Spine 36.842911 -1.155644 4.133550
Head 1.619515 14.669543 10.765017
LeftShoulder -6.314516 17.366491 14.249411
LeftArm 19.167874 24.450353 -75.583337
LeftForeArm 20.598918 -0.000000 19.038535
LeftHand -12.736439 0.000000 -11.484691
LeftHandThumb1 -26.253704 0.000000 33.147579
RightShoulder -28.332226 -50.005206 15.117892
RightArm 58.263192 -20.512752 47.326232
RightForeArm 9.119564 0.000000 18.104854
RightHand -3.180859 -0.000000 14.036832
RightHandThumb1 -24.326973 -0.000000 -32.862282
LeftUpLeg 29.589033 1.602093 9.912824
LeftLeg 16.002240 -0.000000 -0.000000
LeftFoot -14.226125 -7.811222 -7.342189
LeftToeBase 5.729124 -0.000000 -0.000000
RightUpLeg -68.503932 -0.103068 21.089756
RightLeg 135.040945 -0.000000 -0.000000
RightFoot 16.049201 -3.795562 16.169561
RightToeBase -5.374429 -0.000000 0.000000
557
root 1.757091 36.645711 7.589589 -27.754321 -9.157455 -10.116726
Spine 36.844074 -1.168081 4.221948
Head 1.586205 14.616486 10.758492
LeftShoulder -6.313817 17.380057 14.260837
LeftArm 19.171038 24.563800 -75.534842
LeftForeArm 20.627432 0.000000 19.029635
LeftHand -12.784456 -0.000000 -11.510647
LeftHandThumb1 -26.253704 0.000000 33.147579
RightShoulder -28.282492 -49.960123 15.064569
RightArm 58.263244 -20.447773 47.531215
RightForeArm 9.153438 -0.000000 18.279662
RightHand -3.080213 0.000000 14.035773
RightHandThumb1 -24.326973 -0.000000 -32.862282
LeftUpLeg 29.523047 1.684444 9.985581
LeftLeg 16.038074 -0.000000 -0.000000
LeftFoot -14.336980 -7.506311 -7.369073
LeftToeBase 5.740964 -0.000000 -0.000000
RightUpLeg -68.609019 -0.149366 21.032922
RightLeg 135.097530 -0.000000 -0.000000
RightFoot 16.155156 -3.879853 16.472733
RightToeBase -5.379513 -0.000000 0.000000
558
root 1.752116 36.644190 7.559946 -27.644034 -9.601280 -10.190417
Spine 36.846562 -1.166318 4.313445
Head 1.536671 14.599580 10.734087
LeftShoulder -6.309919 17.376162 14.274611
LeftArm 19.140968 24.634290 -75.515270
LeftForeArm 20.606356 -0.000000 19.013451
LeftHand -12.747788 -0.000000 -11.458290
LeftHandThumb1 -26.253704 0.000000 33.147579
RightShoulder -28.248000 -49.916472 15.040773
RightArm 58.199402 -20.371737 47.734990
RightForeArm 9.108389 -0.000000 18.548599
RightHand -2.956797 -0.000000 13.933380
RightHandThumb1 -24.326973 -0.000000 -32.862282
LeftUpLeg 29.499422 1.792007 10.069003
LeftLeg 16.023474 -0.000000 -0.000000
LeftFoot -14.443744 -7.188739 -7.376515
LeftToeBase 5.774347 -0.000000 -0.000000
RightUpLeg -68.706298 -0.185202 21.003681
RightLeg 135.142062 -0.000000 -0.000000
RightFoot 16.254432 -3.865008 16.420178
RightToeBase -5.735050 -0.000000 0.000000
559
root 1.747824 36.643245 7.528844 -27.572740 -10.071739 -10.250366
Spine 36.903462 -1.136931 4.399904
Head 1.480308 14.607878 10.730440
LeftShoulder -6.319418 17.350444 14.305024
LeftArm 19.136913 24.694817 -75.517629
LeftForeArm 20.660649 0.000000 18.945441
LeftHand -12.716770 -0.000000 -11.373376
LeftHandThumb1 -26.253704 0.000000 33.147579
RightShoulder -28.249172 -49.886689 15.027445
RightArm 58.216521 -20.314300 47.888898
RightForeArm 9.117056 0.000000 18.792933
RightHand -3.106823 -0.000000 13.603693
RightHandThumb1 -24.326973 -0.000000 -32.862282
LeftUpLeg 29.520849 1.917509 10.144479
LeftLeg 16.005561 -0.000000 -0.000000
LeftFoot -14.546006 -6.859721 -7.382712
LeftToeBase 5.803629 -0.000000 -0.000000
RightUpLeg -68.757325 -0.202178 20.982513
RightLeg 135.173154 -0.000000 -0.000000
RightFoot 16.333928 -3.892719 16.404320
RightToeBase -5.462576 -0.000000 0.000000
560
root 1.745643 36.641049 7.499492 -27.469444 -10.574151 -10.277765
Spine 36.910941 -1.056342 4.468924
Head 1.450621 14.580622 10.755025
LeftShoulder -6.325997 17.354938 14.329813
LeftArm 19.173395 24.728506 -75.516176
LeftForeArm 20.642095 0.000000 18.815974
LeftHand -12.681100 -0.000000 -11.358590
LeftHandThumb1 -26.253704 0.000000 33.147579
RightShoulder -28.295641 -49.859675 15.090435
RightArm 58.231427 -20.236607 47.982091
RightForeArm 9.097915 -0.000000 19.019015
RightHand -2.905812 -0.000000 13.727327
RightHandThumb1 -24.326973 -0.000000 -32.862282
LeftUpLeg 29.512060 2.134034 10.240786
LeftLeg 15.993772 -0.000000 -0.000000
LeftFoot -14.611701 -6.627008 -7.391643
LeftToeBase 5.737407 -0.000000 -0.000000
RightUpLeg -68.844913 -0.168600 20.931486
RightLeg 135.193073 -0.000000 -0.000000
RightFoot 16.452299 -3.821674 16.292676
RightToeBase -5.619119 -0.000000 0.000000
561
root 1.738015 36.644538 7.469585 -27.452402 -11.087736 -10.376256
Spine 37.041706 -1.013796 4.604464
Head 1.419689 14.571638 10.746728
LeftShoulder -6.303776 17.314770 14.349865
LeftArm 19.161991 24.770228 -75.509624
LeftForeArm 20.655863 -0.000000 18.687379
LeftHand -12.563821 -0.000000 -11.385909
LeftHandThumb1 -26.253704 0.000000 33.147579
RightShoulder -28.238918 -49.823028 15.058486
RightArm 58.141833 -20.125357 48.232997
RightForeArm 9.046209 -0.000000 19.307296
RightHand -2.979035 -0.000000 13.415569
RightHandThumb1 -24.326973 -0.000000 -32.862282
LeftUpLeg 29.620191 2.302243 10.409965
LeftLeg 15.949518 -0.000000 -0.000000
LeftFoot -14.681049 -6.370274 -7.408473
LeftToeBase 5.790595 -0.000000 -0.000000
RightUpLeg -68.779059 -0.186675 20.967646
RightLeg 135.170648 -0.000000 -0.000000
RightFoot 16.486505 -3.791752 16.339557
RightToeBase -6.064051 -0.000000 0.000000
